<svg width="1115" height="266" viewBox="0 0 1115 266" fill="none" xmlns="http://www.w3.org/2000/svg">
<circle cx="136" cy="135" r="88" stroke="#E9692C" stroke-width="24" stroke-linecap="round" stroke-linejoin="round" stroke-dasharray="20 34"/>
<circle cx="464.5" cy="161.5" r="49.5" stroke="#E9692C" stroke-width="12" stroke-linecap="round" stroke-linejoin="round" stroke-dasharray="12 18"/>
<path d="M307.051 210V87.8182H353.824C362.653 87.8182 369.991 89.2102 375.838 91.9943C381.724 94.7386 386.119 98.4972 389.023 103.27C391.966 108.043 393.438 113.452 393.438 119.497C393.438 124.469 392.483 128.724 390.574 132.264C388.665 135.764 386.099 138.608 382.878 140.795C379.656 142.983 376.057 144.554 372.08 145.509V146.702C376.415 146.94 380.571 148.273 384.548 150.699C388.565 153.085 391.847 156.466 394.392 160.841C396.938 165.216 398.21 170.506 398.21 176.71C398.21 183.034 396.679 188.722 393.616 193.773C390.554 198.784 385.94 202.741 379.776 205.645C373.611 208.548 365.855 210 356.509 210H307.051ZM329.185 191.506H352.989C361.023 191.506 366.81 189.974 370.349 186.912C373.929 183.81 375.719 179.832 375.719 174.98C375.719 171.361 374.824 168.099 373.034 165.196C371.244 162.253 368.699 159.946 365.398 158.276C362.097 156.565 358.159 155.71 353.585 155.71H329.185V191.506ZM329.185 139.781H351.08C354.898 139.781 358.338 139.085 361.401 137.693C364.463 136.261 366.869 134.253 368.619 131.668C370.409 129.043 371.304 125.94 371.304 122.361C371.304 117.628 369.634 113.73 366.293 110.668C362.991 107.605 358.08 106.074 351.557 106.074H329.185V139.781ZM533.159 210V118.364H554.099V133.636H555.054C556.724 128.347 559.588 124.27 563.645 121.406C567.741 118.503 572.415 117.051 577.665 117.051C578.858 117.051 580.19 117.111 581.662 117.23C583.173 117.31 584.426 117.449 585.42 117.648V137.514C584.506 137.196 583.054 136.918 581.065 136.679C579.116 136.401 577.227 136.261 575.398 136.261C571.46 136.261 567.92 137.116 564.778 138.827C561.676 140.497 559.23 142.824 557.44 145.807C555.651 148.79 554.756 152.23 554.756 156.128V210H533.159ZM630.001 211.611C622.802 211.611 616.359 209.761 610.671 206.062C604.984 202.364 600.489 196.994 597.188 189.955C593.887 182.915 592.237 174.364 592.237 164.301C592.237 154.119 593.907 145.528 597.248 138.528C600.629 131.489 605.183 126.179 610.91 122.599C616.637 118.98 623.021 117.17 630.06 117.17C635.43 117.17 639.844 118.085 643.305 119.915C646.765 121.705 649.509 123.872 651.538 126.418C653.566 128.923 655.137 131.29 656.251 133.517H657.146V87.8182H678.802V210H657.563V195.562H656.251C655.137 197.79 653.526 200.156 651.418 202.662C649.31 205.128 646.526 207.236 643.066 208.986C639.606 210.736 635.251 211.611 630.001 211.611ZM636.026 193.892C640.6 193.892 644.498 192.659 647.719 190.193C650.941 187.687 653.387 184.207 655.058 179.753C656.728 175.298 657.563 170.108 657.563 164.182C657.563 158.256 656.728 153.105 655.058 148.73C653.427 144.355 651.001 140.955 647.779 138.528C644.597 136.102 640.68 134.889 636.026 134.889C631.214 134.889 627.197 136.142 623.975 138.648C620.754 141.153 618.327 144.614 616.697 149.028C615.066 153.443 614.251 158.494 614.251 164.182C614.251 169.909 615.066 175.02 616.697 179.514C618.367 183.969 620.813 187.489 624.035 190.074C627.296 192.619 631.293 193.892 636.026 193.892ZM742.384 211.79C733.196 211.79 725.261 209.881 718.58 206.062C711.938 202.205 706.827 196.756 703.247 189.716C699.668 182.636 697.878 174.304 697.878 164.719C697.878 155.293 699.668 147.02 703.247 139.901C706.866 132.741 711.918 127.173 718.401 123.196C724.884 119.179 732.5 117.17 741.25 117.17C746.898 117.17 752.227 118.085 757.239 119.915C762.29 121.705 766.744 124.489 770.602 128.267C774.5 132.045 777.563 136.858 779.79 142.705C782.017 148.511 783.131 155.432 783.131 163.466V170.088H708.02V155.531H762.429C762.389 151.395 761.494 147.716 759.744 144.494C757.994 141.233 755.548 138.668 752.406 136.798C749.304 134.929 745.685 133.994 741.548 133.994C737.134 133.994 733.256 135.068 729.915 137.216C726.574 139.324 723.969 142.108 722.099 145.568C720.27 148.989 719.335 152.747 719.295 156.844V169.551C719.295 174.881 720.27 179.455 722.219 183.273C724.168 187.051 726.892 189.955 730.392 191.983C733.892 193.972 737.989 194.966 742.682 194.966C745.824 194.966 748.668 194.528 751.213 193.653C753.759 192.739 755.966 191.406 757.835 189.656C759.705 187.906 761.116 185.739 762.071 183.153L782.236 185.42C780.963 190.75 778.537 195.403 774.957 199.381C771.418 203.318 766.884 206.381 761.355 208.568C755.827 210.716 749.503 211.79 742.384 211.79ZM801.401 210V118.364H822.342V133.636H823.296C824.967 128.347 827.83 124.27 831.887 121.406C835.984 118.503 840.657 117.051 845.907 117.051C847.1 117.051 848.433 117.111 849.904 117.23C851.415 117.31 852.668 117.449 853.663 117.648V137.514C852.748 137.196 851.296 136.918 849.308 136.679C847.359 136.401 845.469 136.261 843.64 136.261C839.702 136.261 836.163 137.116 833.021 138.827C829.918 140.497 827.472 142.824 825.683 145.807C823.893 148.79 822.998 152.23 822.998 156.128V210H801.401ZM926.327 210H902.702L945.717 87.8182H973.04L1016.11 210H992.489L959.856 112.875H958.901L926.327 210ZM927.103 162.094H991.535V179.872H927.103V162.094ZM1054.34 87.8182V210H1032.21V87.8182H1054.34Z" fill="black"/>
</svg>
