<svg width="40" height="40" viewBox="0 0 40 40" fill="none" xmlns="http://www.w3.org/2000/svg">
<path d="M15.3043 18.6963V34.8148C15.3043 35.837 15.3043 36.6667 17.2995 36.6667H21.2898C23.285 36.6667 23.285 35.837 23.285 34.8148V22.2926C20.2191 22.1135 17.3522 20.8217 15.3043 18.6963Z" fill="#E3E0F2"/>
<path fill-rule="evenodd" clip-rule="evenodd" d="M16.0983 14.8165C16.6155 15.8603 17.3658 16.7901 18.2994 17.5443C19.2331 18.2985 20.3288 18.86 21.5139 19.1914C22.699 19.5229 23.9464 19.6168 25.1736 19.4669C26.4008 19.3171 27.5796 18.9268 28.632 18.3221L33.8454 23.161L36.6666 20.5425L31.4532 15.7036C32.2477 14.5127 32.696 13.1511 32.7544 11.7514C32.8128 10.3518 32.4792 8.96201 31.7862 7.71773C31.0933 6.47345 30.0646 5.41718 28.8006 4.65199C27.5366 3.8868 26.0804 3.43884 24.5743 3.35183C23.0681 3.26482 21.5634 3.54173 20.2069 4.15554C18.8504 4.76934 17.6886 5.69908 16.8347 6.854C15.9809 8.00892 15.4642 9.34958 15.3351 10.7451C15.2061 12.1407 15.469 13.5435 16.0983 14.8165ZM24.0331 15.8332C23.7498 15.8332 23.4725 15.811 23.2011 15.7665C22.1957 15.6003 21.2753 15.1365 20.5775 14.4443C19.8318 13.7066 19.3829 12.7529 19.3064 11.7439C19.2299 10.7349 19.5304 9.73221 20.1574 8.90484C20.7843 8.07747 21.6994 7.47597 22.7483 7.20169C23.7973 6.92741 24.9161 6.99711 25.9162 7.39906C26.9162 7.80101 27.7365 8.51063 28.2387 9.40836C28.7409 10.3061 28.8943 11.337 28.6732 12.3275C28.452 13.318 27.8698 14.2075 27.0246 14.846C26.1794 15.4846 25.1229 15.8332 24.0331 15.8332Z" fill="#4E0F60"/>
<path d="M3.33331 5.1851C3.33331 4.16288 3.33331 3.33325 5.32848 3.33325H9.31883C11.314 3.33325 11.314 4.16288 11.314 5.1851V34.8147C11.314 35.837 11.314 36.6666 9.31883 36.6666H5.32848C3.33331 36.6666 3.33331 35.837 3.33331 34.8147V5.1851ZM29.2705 25.5555C27.2754 25.5555 27.2754 26.3851 27.2754 27.4073V34.8147C27.2754 35.837 27.2754 36.6666 29.2705 36.6666H33.2609C34.3622 36.6666 35.2561 36.6666 35.2561 34.8147V27.4073C35.2561 26.3851 35.2561 25.5555 33.2609 25.5555H29.2705Z" fill="#E3E0F2"/>
</svg>
