<svg width="40" height="40" viewBox="0 0 40 40" fill="none" xmlns="http://www.w3.org/2000/svg">
<path d="M11.8504 26.0889L12.1666 29.8282C12.3393 31.8747 14.1154 33.662 16.6119 33.8829C17.5675 33.9668 18.7726 34.0447 20 34.0447C21.132 34.04 22.263 33.986 23.3889 33.8829C25.8863 33.662 27.6624 31.8747 27.8342 29.8282L28.1504 26.0889C29.2872 26.2881 30.3384 26.5286 31.2837 26.8042C32.7504 27.2327 34.0299 27.7675 34.9692 28.4162C35.894 29.0559 36.6666 29.9361 36.6666 31.0485C36.6666 32.1608 35.894 33.041 34.9692 33.6799C34.0299 34.3286 32.7504 34.8635 31.2837 35.2919C28.3376 36.1534 24.3478 36.6665 20 36.6665C15.6521 36.6665 11.6624 36.1534 8.71622 35.2919C7.24955 34.8635 5.97007 34.3286 5.03075 33.6799C4.10596 33.0417 3.33331 32.1608 3.33331 31.0485C3.33331 29.9361 4.10596 29.0552 5.03075 28.4162C5.97007 27.7675 7.24955 27.2327 8.71622 26.8042C9.74333 26.51 10.79 26.2711 11.8504 26.0889Z" fill="#E3E0F2"/>
<path d="M15.5349 8.13013C15.5349 9.40234 16.0054 10.6224 16.8428 11.522C17.6802 12.4216 18.816 12.927 20.0003 12.927C21.1846 12.927 22.3204 12.4216 23.1578 11.522C23.9952 10.6224 24.4657 9.40234 24.4657 8.13013C24.4657 6.85792 23.9952 5.63781 23.1578 4.73822C22.3204 3.83864 21.1846 3.33325 20.0003 3.33325C18.816 3.33325 17.6802 3.83864 16.8428 4.73822C16.0054 5.63781 15.5349 6.85792 15.5349 8.13013ZM20.0003 14.034C18.0884 14.034 16.6897 14.093 15.7369 14.1572C14.602 14.234 13.5942 14.9336 13.1195 16.0612C12.4911 17.552 12.0186 19.113 11.7105 20.7156C11.4364 22.168 12.4847 23.424 13.8154 23.486C14.1772 23.5032 14.5782 23.52 15.0183 23.5362L15.4161 29.2998C15.4978 30.485 16.327 31.4739 17.4495 31.595C17.6701 31.6193 17.9071 31.6422 18.1544 31.6629C18.29 31.6737 18.4262 31.6551 18.5551 31.6084C18.6839 31.5616 18.8027 31.4876 18.9044 31.3906C19.0061 31.2937 19.0887 31.1758 19.1473 31.0439C19.2058 30.9121 19.2392 30.769 19.2453 30.623L19.4514 26.1922C19.4558 26.0976 19.4939 26.0084 19.5579 25.9431C19.6218 25.8779 19.7067 25.8415 19.7949 25.8417H20.205C20.2932 25.8415 20.3781 25.8779 20.442 25.9431C20.506 26.0084 20.5441 26.0976 20.5485 26.1922L20.7546 30.623C20.7607 30.769 20.7939 30.9122 20.8525 31.0442C20.911 31.1761 20.9935 31.2941 21.0953 31.3911C21.197 31.4881 21.3158 31.5622 21.4447 31.609C21.5736 31.6559 21.7099 31.6744 21.8455 31.6636C22.0938 31.6419 22.3289 31.6191 22.5511 31.595C23.6736 31.4739 24.5021 30.485 24.5845 29.2998L24.9816 23.5362C25.4222 23.52 25.8232 23.5032 26.1845 23.486C27.5152 23.424 28.5636 22.168 28.2894 20.7156C27.9816 19.113 27.5092 17.552 26.8811 16.0612C26.4057 14.9336 25.3972 14.234 24.2637 14.1572C23.3102 14.093 21.9115 14.034 20.0003 14.034Z" fill="#4E0F60"/>
</svg>
