<svg width="1128" height="300" viewBox="0 0 1128 300" fill="none" xmlns="http://www.w3.org/2000/svg">
<circle cx="150" cy="150" r="110" stroke="#E9692C" stroke-width="24" stroke-linecap="round" stroke-linejoin="round" stroke-dasharray="24 30"/>
<circle cx="483.5" cy="183.5" r="49.5" stroke="#E9692C" stroke-width="12" stroke-linecap="round" stroke-linejoin="round" stroke-dasharray="12 18"/>
<path d="M328.051 232V109.818H374.824C383.653 109.818 390.991 111.21 396.838 113.994C402.724 116.739 407.119 120.497 410.023 125.27C412.966 130.043 414.438 135.452 414.438 141.497C414.438 146.469 413.483 150.724 411.574 154.264C409.665 157.764 407.099 160.608 403.878 162.795C400.656 164.983 397.057 166.554 393.08 167.509V168.702C397.415 168.94 401.571 170.273 405.548 172.699C409.565 175.085 412.847 178.466 415.392 182.841C417.938 187.216 419.21 192.506 419.21 198.71C419.21 205.034 417.679 210.722 414.616 215.773C411.554 220.784 406.94 224.741 400.776 227.645C394.611 230.548 386.855 232 377.509 232H328.051ZM350.185 213.506H373.989C382.023 213.506 387.81 211.974 391.349 208.912C394.929 205.81 396.719 201.832 396.719 196.98C396.719 193.361 395.824 190.099 394.034 187.196C392.244 184.253 389.699 181.946 386.398 180.276C383.097 178.565 379.159 177.71 374.585 177.71H350.185V213.506ZM350.185 161.781H372.08C375.898 161.781 379.338 161.085 382.401 159.693C385.463 158.261 387.869 156.253 389.619 153.668C391.409 151.043 392.304 147.94 392.304 144.361C392.304 139.628 390.634 135.73 387.293 132.668C383.991 129.605 379.08 128.074 372.557 128.074H350.185V161.781ZM554.159 232V140.364H575.099V155.636H576.054C577.724 150.347 580.588 146.27 584.645 143.406C588.741 140.503 593.415 139.051 598.665 139.051C599.858 139.051 601.19 139.111 602.662 139.23C604.173 139.31 605.426 139.449 606.42 139.648V159.514C605.506 159.196 604.054 158.918 602.065 158.679C600.116 158.401 598.227 158.261 596.398 158.261C592.46 158.261 588.92 159.116 585.778 160.827C582.676 162.497 580.23 164.824 578.44 167.807C576.651 170.79 575.756 174.23 575.756 178.128V232H554.159ZM651.001 233.611C643.802 233.611 637.359 231.761 631.671 228.062C625.984 224.364 621.489 218.994 618.188 211.955C614.887 204.915 613.237 196.364 613.237 186.301C613.237 176.119 614.907 167.528 618.248 160.528C621.629 153.489 626.183 148.179 631.91 144.599C637.637 140.98 644.021 139.17 651.06 139.17C656.43 139.17 660.844 140.085 664.305 141.915C667.765 143.705 670.509 145.872 672.538 148.418C674.566 150.923 676.137 153.29 677.251 155.517H678.146V109.818H699.802V232H678.563V217.562H677.251C676.137 219.79 674.526 222.156 672.418 224.662C670.31 227.128 667.526 229.236 664.066 230.986C660.606 232.736 656.251 233.611 651.001 233.611ZM657.026 215.892C661.6 215.892 665.498 214.659 668.719 212.193C671.941 209.687 674.387 206.207 676.058 201.753C677.728 197.298 678.563 192.108 678.563 186.182C678.563 180.256 677.728 175.105 676.058 170.73C674.427 166.355 672.001 162.955 668.779 160.528C665.597 158.102 661.68 156.889 657.026 156.889C652.214 156.889 648.197 158.142 644.975 160.648C641.754 163.153 639.327 166.614 637.697 171.028C636.066 175.443 635.251 180.494 635.251 186.182C635.251 191.909 636.066 197.02 637.697 201.514C639.367 205.969 641.813 209.489 645.035 212.074C648.296 214.619 652.293 215.892 657.026 215.892ZM763.384 233.79C754.196 233.79 746.261 231.881 739.58 228.062C732.938 224.205 727.827 218.756 724.247 211.716C720.668 204.636 718.878 196.304 718.878 186.719C718.878 177.293 720.668 169.02 724.247 161.901C727.866 154.741 732.918 149.173 739.401 145.196C745.884 141.179 753.5 139.17 762.25 139.17C767.898 139.17 773.227 140.085 778.239 141.915C783.29 143.705 787.744 146.489 791.602 150.267C795.5 154.045 798.563 158.858 800.79 164.705C803.017 170.511 804.131 177.432 804.131 185.466V192.088H729.02V177.531H783.429C783.389 173.395 782.494 169.716 780.744 166.494C778.994 163.233 776.548 160.668 773.406 158.798C770.304 156.929 766.685 155.994 762.548 155.994C758.134 155.994 754.256 157.068 750.915 159.216C747.574 161.324 744.969 164.108 743.099 167.568C741.27 170.989 740.335 174.747 740.295 178.844V191.551C740.295 196.881 741.27 201.455 743.219 205.273C745.168 209.051 747.892 211.955 751.392 213.983C754.892 215.972 758.989 216.966 763.682 216.966C766.824 216.966 769.668 216.528 772.213 215.653C774.759 214.739 776.966 213.406 778.835 211.656C780.705 209.906 782.116 207.739 783.071 205.153L803.236 207.42C801.963 212.75 799.537 217.403 795.957 221.381C792.418 225.318 787.884 228.381 782.355 230.568C776.827 232.716 770.503 233.79 763.384 233.79ZM822.401 232V140.364H843.342V155.636H844.296C845.967 150.347 848.83 146.27 852.887 143.406C856.984 140.503 861.657 139.051 866.907 139.051C868.1 139.051 869.433 139.111 870.904 139.23C872.415 139.31 873.668 139.449 874.663 139.648V159.514C873.748 159.196 872.296 158.918 870.308 158.679C868.359 158.401 866.469 158.261 864.64 158.261C860.702 158.261 857.163 159.116 854.021 160.827C850.918 162.497 848.472 164.824 846.683 167.807C844.893 170.79 843.998 174.23 843.998 178.128V232H822.401ZM947.327 232H923.702L966.717 109.818H994.04L1037.11 232H1013.49L980.856 134.875H979.901L947.327 232ZM948.103 184.094H1012.53V201.872H948.103V184.094ZM1075.34 109.818V232H1053.21V109.818H1075.34Z" fill="black"/>
</svg>
