<svg width="40" height="40" viewBox="0 0 40 40" fill="none" xmlns="http://www.w3.org/2000/svg">
<path d="M12.2222 16.6666C10.4541 16.6666 8.75841 15.9642 7.50816 14.714C6.25792 13.4637 5.55554 11.768 5.55554 9.99992C5.55554 8.23181 6.25792 6.53612 7.50816 5.28587C8.75841 4.03563 10.4541 3.33325 12.2222 3.33325L27.7778 3.33325C29.5459 3.33325 31.2416 4.03563 32.4918 5.28587C33.7421 6.53612 34.4444 8.23181 34.4444 9.99992C34.4444 11.768 33.7421 13.4637 32.4918 14.714C31.2416 15.9642 29.5459 16.6666 27.7778 16.6666H23.3333V11.111C23.3333 9.6376 22.748 8.22453 21.7061 7.18266C20.6643 6.14079 19.2512 5.55547 17.7778 5.55547C16.3043 5.55547 14.8913 6.14079 13.8494 7.18266C12.8075 8.22453 12.2222 9.6376 12.2222 11.111V16.6666Z" fill="#4E0F60"/>
<path d="M17.7778 7.77783C16.8937 7.77783 16.0459 8.12902 15.4208 8.75414C14.7956 9.37926 14.4444 10.2271 14.4444 11.1112V21.2223C13.1896 21.4784 12.0618 22.1603 11.2519 23.1524C10.442 24.1445 9.99974 25.386 10 26.6667C10 29.3189 11.0536 31.8624 12.9289 33.7378C14.8043 35.6132 17.3478 36.6667 20 36.6667H21.1111C24.058 36.6667 26.8841 35.4961 28.9679 33.4124C31.0516 31.3286 32.2222 28.5025 32.2222 25.5556V23.6601C32.2222 22.3947 31.7196 21.1811 30.8248 20.2864C29.93 19.3916 28.7165 18.8889 27.4511 18.8889H21.1111V11.1112C21.1111 10.2271 20.7599 9.37926 20.1348 8.75414C19.5097 8.12902 18.6618 7.77783 17.7778 7.77783Z" fill="#E3E0F2"/>
</svg>
