<svg width="40" height="40" viewBox="0 0 40 40" fill="none" xmlns="http://www.w3.org/2000/svg">
<path d="M12.2691 20.1241C16.8093 20.1241 20.49 16.3925 20.49 11.7892C20.49 7.186 16.8093 3.45435 12.2691 3.45435C7.72878 3.45435 4.04816 7.186 4.04816 11.7892C4.04816 16.3925 7.72878 20.1241 12.2691 20.1241Z" fill="#E3E0F2" stroke="#E3E0F2" stroke-width="0.5" stroke-miterlimit="10"/>
<path d="M11.3147 20.1661C9.43584 22.7824 6.90762 23.839 3.33331 23.839C5.0454 22.6835 6.7575 20.4206 7.42232 18.6421L11.3147 20.1661Z" fill="#E3E0F2"/>
<path d="M8.09903 12.983C8.75704 12.983 9.29046 12.4429 9.29046 11.7768C9.29046 11.1106 8.75704 10.5706 8.09903 10.5706C7.44102 10.5706 6.90759 11.1106 6.90759 11.7768C6.90759 12.4429 7.44102 12.983 8.09903 12.983Z" fill="white"/>
<path d="M12.269 12.983C12.927 12.983 13.4604 12.4429 13.4604 11.7768C13.4604 11.1106 12.927 10.5706 12.269 10.5706C11.611 10.5706 11.0776 11.1106 11.0776 11.7768C11.0776 12.4429 11.611 12.983 12.269 12.983Z" fill="white"/>
<path d="M16.4389 12.983C17.0969 12.983 17.6304 12.4429 17.6304 11.7768C17.6304 11.1106 17.0969 10.5706 16.4389 10.5706C15.7809 10.5706 15.2475 11.1106 15.2475 11.7768C15.2475 12.4429 15.7809 12.983 16.4389 12.983Z" fill="white"/>
<path d="M7.42232 18.6421C6.7575 20.4212 5.0454 22.6835 3.33331 23.839C6.90762 23.839 9.43584 22.7824 11.3147 20.1661" stroke="#E3E0F2" stroke-width="0.5" stroke-miterlimit="10" stroke-linecap="round" stroke-linejoin="round"/>
<path d="M27.7308 32.9269C32.2711 32.9269 35.9517 29.2006 35.9517 24.6041C35.9517 20.0075 32.2711 16.2812 27.7308 16.2812C23.1906 16.2812 19.5099 20.0075 19.5099 24.6041C19.5099 29.2006 23.1906 32.9269 27.7308 32.9269Z" fill="#4E0F60" stroke="#4E0F60" stroke-width="0.5" stroke-miterlimit="10"/>
<path d="M31.9009 25.8104C32.5589 25.8104 33.0923 25.2703 33.0923 24.6042C33.0923 23.938 32.5589 23.3979 31.9009 23.3979C31.2429 23.3979 30.7095 23.938 30.7095 24.6042C30.7095 25.2703 31.2429 25.8104 31.9009 25.8104Z" fill="white"/>
<path d="M28.6851 32.9935C30.564 35.6098 33.0922 36.6664 36.6665 36.6664C34.9544 35.5109 33.2424 33.248 32.5775 31.4695L28.6851 32.9935Z" fill="#4E0F60"/>
<path d="M27.7309 25.8104C28.3889 25.8104 28.9224 25.2703 28.9224 24.6042C28.9224 23.938 28.3889 23.3979 27.7309 23.3979C27.0729 23.3979 26.5395 23.938 26.5395 24.6042C26.5395 25.2703 27.0729 25.8104 27.7309 25.8104Z" fill="white"/>
<path d="M23.5607 25.8104C24.2187 25.8104 24.7521 25.2703 24.7521 24.6042C24.7521 23.938 24.2187 23.3979 23.5607 23.3979C22.9027 23.3979 22.3693 23.938 22.3693 24.6042C22.3693 25.2703 22.9027 25.8104 23.5607 25.8104Z" fill="white"/>
<path d="M32.5774 31.47C33.2422 33.2491 34.9543 35.5114 36.6664 36.6669C33.0921 36.6669 30.5639 35.6103 28.685 32.994" stroke="#4E0F60" stroke-width="0.5" stroke-miterlimit="10" stroke-linecap="round" stroke-linejoin="round"/>
</svg>
