<svg width="40" height="40" viewBox="0 0 40 40" fill="none" xmlns="http://www.w3.org/2000/svg">
<path d="M29.995 6.94995C30.9712 7.29392 31.8166 7.93237 32.4146 8.7772C33.0125 9.62202 33.3335 10.6316 33.3334 11.6666V31.6666C33.3334 32.9927 32.8066 34.2645 31.8689 35.2022C30.9312 36.1398 29.6594 36.6666 28.3334 36.6666H11.6667C10.3406 36.6666 9.06884 36.1398 8.13115 35.2022C7.19347 34.2645 6.66669 32.9927 6.66669 31.6666V11.6666C6.66651 10.6316 6.98754 9.62202 7.58549 8.7772C8.18343 7.93237 9.02883 7.29392 10.005 6.94995C10.0781 8.66763 10.8119 10.2907 12.0532 11.4801C13.2946 12.6696 14.9475 13.3335 16.6667 13.3333H23.3334C24.9853 13.3334 26.5784 12.7203 27.804 11.6126C29.0296 10.505 29.8003 8.9818 29.9667 7.33828L29.995 6.94995ZM25 16.6666H15C14.558 16.6666 14.1341 16.8422 13.8215 17.1548C13.5089 17.4673 13.3334 17.8913 13.3334 18.3333V20C13.3334 20.442 13.5089 20.8659 13.8215 21.1785C14.1341 21.491 14.558 21.6666 15 21.6666C15.442 21.6666 15.866 21.491 16.1785 21.1785C16.4911 20.8659 16.6667 20.442 16.6667 20H18.3334V26.6666C17.8913 26.6666 17.4674 26.8422 17.1548 27.1548C16.8423 27.4673 16.6667 27.8913 16.6667 28.3333C16.6667 28.7753 16.8423 29.1992 17.1548 29.5118C17.4674 29.8244 17.8913 30 18.3334 30H21.6667C22.1087 30 22.5326 29.8244 22.8452 29.5118C23.1578 29.1992 23.3334 28.7753 23.3334 28.3333C23.3334 27.8913 23.1578 27.4673 22.8452 27.1548C22.5326 26.8422 22.1087 26.6666 21.6667 26.6666V20H23.3334C23.3334 20.442 23.5089 20.8659 23.8215 21.1785C24.1341 21.491 24.558 21.6666 25 21.6666C25.442 21.6666 25.866 21.491 26.1785 21.1785C26.4911 20.8659 26.6667 20.442 26.6667 20V18.3333C26.6667 17.8913 26.4911 17.4673 26.1785 17.1548C25.866 16.8422 25.442 16.6666 25 16.6666Z" fill="#4E0F60"/>
<path d="M13 7C13 4.79086 14.7909 3 17 3H23C25.2091 3 27 4.79086 27 7C27 9.20914 25.2091 11 23 11H17C14.7909 11 13 9.20914 13 7Z" fill="#E3E0F2"/>
</svg>
