<svg width="600" height="600" viewBox="0 0 600 600" fill="none" xmlns="http://www.w3.org/2000/svg">
<path d="M192.106 405.659C192.106 374.869 217.066 349.909 247.856 349.909H299.606V407.659C299.606 437.345 275.542 461.409 245.856 461.409C216.171 461.409 192.106 437.345 192.106 407.659V405.659Z" fill="#0ACF83"/>
<path d="M297.606 295.159C297.606 264.369 322.566 239.409 353.356 239.409C384.146 239.409 409.106 264.37 409.106 295.16V303.159C409.106 333.949 384.146 358.909 353.356 358.909C322.566 358.909 297.606 333.95 297.606 303.16V295.159Z" fill="#1ABCFE"/>
<path d="M192.106 299.159C192.106 332.158 218.857 358.909 251.856 358.909H299.606V239.409H251.856C218.857 239.409 192.106 266.16 192.106 299.159Z" fill="#A259FF"/>
<path d="M298 137V245H355C384.823 245 409 220.823 409 191C409 161.177 384.823 137 355 137H298Z" fill="#FF7262"/>
<path d="M192 191C192 220.823 216.177 245 246 245H300V137H246C216.177 137 192 161.177 192 191Z" fill="#F24E1E"/>
</svg>
