<svg width="600" height="600" viewBox="0 0 600 600" fill="none" xmlns="http://www.w3.org/2000/svg">
<g clip-path="url(#clip0_2226_1551)">
<g clip-path="url(#clip1_2226_1551)">
<path d="M274.525 270.992C311.988 250.463 363.722 221.901 363.722 138H301.284C301.284 184.413 278.985 196.909 244.198 216.545C206.735 237.074 155 265.636 155 348.645H217.438C217.438 302.231 239.738 289.736 274.525 270.992Z" fill="#FF3C00"/>
<path d="M381.562 251.355C381.562 297.769 359.262 310.264 324.475 329.901C287.012 350.43 235.278 378.992 235.278 462.893H297.716C297.716 416.479 320.015 403.983 354.803 384.347C392.265 363.818 444 335.256 444 251.355H381.562Z" fill="#FF3C00"/>
</g>
</g>
<defs>
<clipPath id="clip0_2226_1551">
<rect width="600" height="600" fill="white"/>
</clipPath>
<clipPath id="clip1_2226_1551">
<rect width="289" height="324" fill="white" transform="translate(155 138)"/>
</clipPath>
</defs>
</svg>
