<svg width="90" height="90" viewBox="0 0 90 90" fill="none" xmlns="http://www.w3.org/2000/svg">
<path d="M72 12H18C14.685 12 12 14.685 12 18V72C12 75.315 14.685 78 18 78H72C75.315 78 78 75.315 78 72V18C78 14.685 75.315 12 72 12ZM32.862 66H24.012V37.524H32.862V66ZM28.347 33.453C25.494 33.453 23.187 31.14 23.187 28.293C23.187 25.446 25.497 23.136 28.347 23.136C31.191 23.136 33.504 25.449 33.504 28.293C33.504 31.14 31.191 33.453 28.347 33.453ZM66.012 66H57.168V52.152C57.168 48.849 57.108 44.601 52.569 44.601C47.964 44.601 47.256 48.198 47.256 51.912V66H38.412V37.524H46.902V41.415H47.022C48.204 39.177 51.09 36.816 55.395 36.816C64.356 36.816 66.012 42.714 66.012 50.382V66Z" fill="black"/>
</svg>
