<svg width="48" height="48" viewBox="0 0 48 48" fill="none" xmlns="http://www.w3.org/2000/svg">
  <circle cx="24" cy="24" r="20" fill="#FFE01B" stroke="#000" stroke-width="2"/>
  <path d="M16 22c0-4 3-7 7-7 3 0 5.5 1.5 6.5 4h2.5c2 0 3.5 1.6 3.5 3.5S34 26 32 26h-1.4c-.6 3.5-3.6 6-7.6 6-4.4 0-8-3.1-8-7z" fill="#000"/>
  <path d="M18 28c0 2.21 2.686 4 6 4s6-1.79 6-4" stroke="#FFE01B" stroke-width="2" stroke-linecap="round"/>
  <circle cx="19.5" cy="22" r="1.5" fill="#fff"/>
  <circle cx="28.5" cy="22" r="1.5" fill="#fff"/>
</svg>
