<svg width="884" height="125" viewBox="0 0 884 125" fill="none" xmlns="http://www.w3.org/2000/svg">
<path d="M192 101C192 98.1738 192 63.8224 192 47L222.256 79.8037L252 47V101" stroke="#4A8B82" stroke-width="6" stroke-linejoin="bevel"/>
<path d="M316 50H267V99H316" stroke="#4A8B82" stroke-width="6" stroke-linejoin="bevel"/>
<path d="M291 74H316" stroke="#4A8B82" stroke-width="6" stroke-linejoin="bevel"/>
<path d="M858 57H817V99H858" stroke="#4A8B82" stroke-width="6" stroke-linejoin="bevel"/>
<path d="M835 78L858 78" stroke="#4A8B82" stroke-width="6" stroke-linejoin="bevel"/>
<path d="M328 99V49H364.5C364.5 49 386.5 49 386.5 74C386.5 99 364.5 99 364.5 99H328Z" stroke="#4A8B82" stroke-width="6"/>
<path d="M401 101L401 47" stroke="#4A8B82" stroke-width="6" stroke-linejoin="bevel"/>
<path d="M748 101L748 55" stroke="#4A8B82" stroke-width="6" stroke-linejoin="bevel"/>
<path d="M412 101L441 48L470 101" stroke="#4A8B82" stroke-width="6" stroke-linejoin="bevel"/>
<path d="M553 101L582 48L611 101" stroke="#4A8B82" stroke-width="6" stroke-linejoin="bevel"/>
<path d="M682 56L657.5 101L633 56" stroke="#4A8B82" stroke-width="6" stroke-linejoin="bevel"/>
<path d="M482 101L482.5 47L543 101V47" stroke="#4A8B82" stroke-width="6" stroke-linejoin="bevel"/>
<path d="M711.5 58C725.491 58 736 67.6032 736 78.5C736 89.3968 725.491 99 711.5 99C697.509 99 687 89.3968 687 78.5C687 67.6032 697.509 58 711.5 58Z" stroke="#4A8B82" stroke-width="6"/>
<path d="M807 65C807 65 799 57 785 57C771 57 758.848 65.3254 759 78.5C759.15 91.5511 768.5 99 785 99.5C801.5 100 807 91.5 807 91.5" stroke="#4A8B82" stroke-width="6" stroke-linejoin="bevel"/>
<path d="M121 102.5V21" stroke="#4A8B82" stroke-width="9" stroke-linejoin="bevel"/>
<path d="M25 102.5V21" stroke="#4A8B82" stroke-width="9" stroke-linejoin="bevel"/>
<path d="M73 79L73 29" stroke="#4A8B82" stroke-width="9" stroke-linejoin="bevel"/>
</svg>
